<svg id="Layer_1" data-name="Layer 1" xmlns="http://www.w3.org/2000/svg" xmlns:xlink="http://www.w3.org/1999/xlink" width="249.2" height="221.6" viewBox="0 0 249.2 221.6"><defs><linearGradient id="linear-gradient" x1="176.98" y1="-52.53" x2="81.27" y2="299.22" gradientTransform="matrix(-0.75, -0.66, -0.64, 0.72, 294.83, 126.87)" gradientUnits="userSpaceOnUse"><stop offset="0" stop-color="#07a871"/><stop offset="0.1" stop-color="#09a46d"/><stop offset="0.21" stop-color="#0f9762"/><stop offset="0.32" stop-color="#1a8150"/><stop offset="0.44" stop-color="#286336"/><stop offset="0.49" stop-color="#305328"/><stop offset="0.99" stop-color="#141126"/></linearGradient><linearGradient id="linear-gradient-2" x1="152.53" y1="-62.18" x2="55.35" y2="294.95" xlink:href="#linear-gradient"/><linearGradient id="linear-gradient-3" x1="186.13" y1="-74.32" x2="78.38" y2="321.65" xlink:href="#linear-gradient"/><linearGradient id="linear-gradient-4" x1="141.62" y1="-68.22" x2="43.57" y2="292.1" xlink:href="#linear-gradient"/><linearGradient id="linear-gradient-5" x1="167.77" y1="-46.33" x2="74.9" y2="294.98" xlink:href="#linear-gradient"/></defs><polygon points="249.2 221.6 0 220.4 119.3 0 249.2 221.6" fill="#f4ee99"/><path d="M149.1,42.6c3.7-16.5,15.4-32,30-40.5A57.4,57.4,0,0,0,173,19.5c-1.3,7.3-.3,13.9-.8,21-1.3,16.5-11.3,31-17.9,46.6C152.5,72.2,145.5,59.2,149.1,42.6Z" fill="url(#linear-gradient)"/><path d="M151.6,120.3c2.2-6.7,2.6-13.6,3.1-20.1a26,26,0,0,1,2.2-7.4c3.1-7.6,9.2-12.6,15.2-17.8s10.2-10,13.3-15.9c-1.1,13-3.7,26.3-12.8,37.9C166,105.4,157.9,112.1,151.6,120.3Z" fill="url(#linear-gradient-2)"/><path d="M129,45.7c.3,3.6,3.5,19.4,6.3,22.8,5.7,7,11.8,12.1,14.4,21.7,4.6,17.7-2,38.2-15.4,54.6C141.3,115.1,100.8,98.1,129,45.7Z" fill="url(#linear-gradient-3)"/><path d="M132.7,180.2a62.1,62.1,0,0,0-5.4,8.9c1.7-8.2,1.2-16.4,1.6-23.1s2.8-11.4,7.4-17.1,11.1-10.5,17.3-14.4c10.6-6.8,21.3-12.6,30-22.3-1.4,8.8-3.5,17.7-7.9,26.1-5.3,10-13.3,16.7-22.2,23.2S138.4,172.4,132.7,180.2Z" fill="url(#linear-gradient-4)"/><path d="M106,179.5c-6-14.6-13.9-31.2-5.7-49.6,5.5,12,20,16.1,23.7,30,4.1,15.7-.2,38-9.6,53.9A45.2,45.2,0,0,1,111,219C114.9,204.3,111,191.3,106,179.5Z" fill="url(#linear-gradient-5)"/></svg>