<svg xmlns="http://www.w3.org/2000/svg" xmlns:xlink="http://www.w3.org/1999/xlink" width="249.2" height="221.6" viewBox="0 0 249.2 221.6"><defs><linearGradient id="a" x1="176.98" x2="81.27" y1="-52.53" y2="299.22" gradientTransform="matrix(-.75 -.66 -.64 .72 294.83 126.87)" gradientUnits="userSpaceOnUse"><stop offset="0" stop-color="#07a871"/><stop offset=".1" stop-color="#09a46d"/><stop offset=".21" stop-color="#0f9762"/><stop offset=".32" stop-color="#1a8150"/><stop offset=".44" stop-color="#286336"/><stop offset=".49" stop-color="#305328"/><stop offset=".99" stop-color="#141126"/></linearGradient><linearGradient id="b" x1="152.53" x2="55.35" y1="-62.18" y2="294.95" xlink:href="#a"/><linearGradient id="c" x1="186.13" x2="78.38" y1="-74.32" y2="321.65" xlink:href="#a"/><linearGradient id="d" x1="141.62" x2="43.57" y1="-68.22" y2="292.1" xlink:href="#a"/><linearGradient id="e" x1="167.77" x2="74.9" y1="-46.33" y2="294.98" xlink:href="#a"/></defs><path fill="#f4ee99" d="M249.2 221.6L0 220.4 119.3 0l129.9 221.6z"/><path fill="url(#a)" d="M149.1 42.6c3.7-16.5 15.4-32 30-40.5a57.4 57.4 0 0 0-6.1 17.4c-1.3 7.3-.3 13.9-.8 21-1.3 16.5-11.3 31-17.9 46.6-1.8-14.9-8.8-27.9-5.2-44.5z"/><path fill="url(#b)" d="M151.6 120.3c2.2-6.7 2.6-13.6 3.1-20.1a26 26 0 0 1 2.2-7.4c3.1-7.6 9.2-12.6 15.2-17.8s10.2-10 13.3-15.9c-1.1 13-3.7 26.3-12.8 37.9-6.6 8.4-14.7 15.1-21 23.3z"/><path fill="url(#c)" d="M129 45.7c.3 3.6 3.5 19.4 6.3 22.8 5.7 7 11.8 12.1 14.4 21.7 4.6 17.7-2 38.2-15.4 54.6 7-29.7-33.5-46.7-5.3-99.1z"/><path fill="url(#d)" d="M132.7 180.2a62.1 62.1 0 0 0-5.4 8.9c1.7-8.2 1.2-16.4 1.6-23.1s2.8-11.4 7.4-17.1 11.1-10.5 17.3-14.4c10.6-6.8 21.3-12.6 30-22.3-1.4 8.8-3.5 17.7-7.9 26.1-5.3 10-13.3 16.7-22.2 23.2s-15.1 10.9-20.8 18.7z"/><path fill="url(#e)" d="M106 179.5c-6-14.6-13.9-31.2-5.7-49.6 5.5 12 20 16.1 23.7 30 4.1 15.7-.2 38-9.6 53.9a45.2 45.2 0 0 1-3.4 5.2c3.9-14.7 0-27.7-5-39.5z"/></svg>